<?xml version="1.0" encoding="UTF-8" standalone="no"?>
<!-- Created with Inkscape (http://www.inkscape.org/) -->

<svg
   xmlns:dc="http://purl.org/dc/elements/1.1/"
   xmlns:cc="http://creativecommons.org/ns#"
   xmlns:rdf="http://www.w3.org/1999/02/22-rdf-syntax-ns#"
   xmlns:svg="http://www.w3.org/2000/svg"
   xmlns="http://www.w3.org/2000/svg"
   xmlns:sodipodi="http://sodipodi.sourceforge.net/DTD/sodipodi-0.dtd"
   xmlns:inkscape="http://www.inkscape.org/namespaces/inkscape"
   version="1.0"
   width="1062.9567"
   height="408.40155"
   id="svg3642"
   inkscape:version="0.92.0 r"
   sodipodi:docname="gnome-l10n.svg"
   inkscape:export-xdpi="96"
   inkscape:export-ydpi="96">
  <metadata
     id="metadata24">
    <rdf:RDF>
      <cc:Work
         rdf:about="">
        <dc:format>image/svg+xml</dc:format>
        <dc:type
           rdf:resource="http://purl.org/dc/dcmitype/StillImage" />
        <dc:title />
      </cc:Work>
    </rdf:RDF>
  </metadata>
  <sodipodi:namedview
     pagecolor="#000000"
     bordercolor="#666666"
     borderopacity="1"
     objecttolerance="10"
     gridtolerance="10"
     guidetolerance="10"
     inkscape:pageopacity="0"
     inkscape:pageshadow="2"
     inkscape:window-width="1280"
     inkscape:window-height="961"
     id="namedview22"
     showgrid="false"
     inkscape:zoom="1"
     inkscape:cx="622.15068"
     inkscape:cy="73.6725"
     inkscape:window-x="0"
     inkscape:window-y="27"
     inkscape:window-maximized="1"
     inkscape:current-layer="g15041"
     showborder="true"
     borderlayer="false"
     inkscape:showpageshadow="false" />
  <defs
     id="defs3644" />
  <g
     transform="translate(162.8693,-197.3138)"
     id="layer1">
    <g
       transform="matrix(1.293235,0,0,1.293235,-4878.321,-1224.915)"
       id="g15041">
      <g
         transform="matrix(2.438586,0,0,2.438586,3659.952,1113.451)"
         style="fill:#ffffff;fill-opacity:1;fill-rule:nonzero;stroke:none;stroke-miterlimit:4"
         id="g15043">
        <g
           style="fill:#ffffff;fill-opacity:1"
           id="g15045">
          <path
             d="M 86.068,0 C 61.466,0 56.851,35.041 70.691,35.041 84.529,35.041 110.671,0 86.068,0 Z"
             style="fill:#ffffff;fill-opacity:1"
             id="path15047"
             inkscape:connector-curvature="0" />
          <path
             d="M 45.217,30.699 C 52.586,31.149 60.671,2.577 46.821,4.374 32.976,6.171 37.845,30.249 45.217,30.699 Z"
             style="fill:#ffffff;fill-opacity:1"
             id="path15049"
             inkscape:connector-curvature="0" />
          <path
             d="M 11.445,48.453 C 16.686,46.146 12.12,23.581 3.208,29.735 -5.7,35.89 6.204,50.759 11.445,48.453 Z"
             style="fill:#ffffff;fill-opacity:1"
             id="path15051"
             inkscape:connector-curvature="0" />
          <path
             d="M 26.212,36.642 C 32.451,35.37 32.793,9.778 21.667,14.369 10.539,18.961 19.978,37.916 26.212,36.642 l 0,0 z"
             style="fill:#ffffff;fill-opacity:1"
             id="path15053"
             inkscape:connector-curvature="0" />
          <path
             d="m 58.791,93.913 c 1.107,8.454 -6.202,12.629 -13.36,7.179 C 22.644,83.743 83.16,75.088 79.171,51.386 75.86,31.712 15.495,37.769 8.621,68.553 3.968,89.374 27.774,118.26 52.614,118.26 c 12.22,0 26.315,-11.034 28.952,-25.012 C 83.58,82.589 57.867,86.86 58.791,93.913 l 0,0 z"
             style="fill:#ffffff;fill-opacity:1"
             id="path15055"
             inkscape:connector-curvature="0" />
        </g>
      </g>
      <g
         id="g15057"
         style="fill:#ffffff">
        <path
           d="m 4176.2963,1214.4401 c -15.1078,0.4069 -27.0386,5.8367 -35.8126,16.25 -9.0861,10.8369 -13.6562,25.8104 -13.6562,44.9063 0,19.0432 4.5703,33.9757 13.6562,44.8124 9.1305,10.8369 21.6664,16.25 37.6563,16.25 16.034,0 28.6014,-5.4131 37.6875,-16.25 9.0859,-10.8367 13.6251,-25.7692 13.625,-44.8124 -1e-4,-19.0959 -4.5391,-34.0694 -13.625,-44.9063 -9.0861,-10.8366 -21.6536,-16.2499 -37.6875,-16.25 -0.6246,0 -1.2296,-0.016 -1.8437,0 z m 1.125,22 c 0.2415,-0.01 0.4737,0 0.7187,0 7.8833,10e-5 13.9919,3.4114 18.3125,10.25 4.3203,6.8388 6.4999,16.4913 6.5,28.9063 0,12.3623 -2.1799,21.9427 -6.5,28.7812 -4.3204,6.8389 -10.4293,10.2812 -18.3125,10.2812 -7.8391,0 -13.8983,-3.4423 -18.2187,-10.2812 -4.3204,-6.8385 -6.4999,-16.4189 -6.5,-28.7812 0,-12.4149 2.1798,-22.0675 6.5,-28.9063 4.1852,-6.6249 10.0123,-10.0428 17.5,-10.25 z"
           style="font-style:normal;font-variant:normal;font-weight:bold;font-stretch:normal;font-size:148.699646px;line-height:125%;font-family:'Bitstream Vera Sans';text-align:start;writing-mode:lr-tb;text-anchor:start;fill:#ffffff;fill-opacity:1;stroke:none;stroke-width:1pt;stroke-linecap:butt;stroke-linejoin:miter;stroke-opacity:1"
           id="path15059"
           inkscape:connector-curvature="0" />
        <path
           d="m 4005.6293,1325.612 c -13.3076,11.1757 -33.1067,11.0472 -41.3549,11.0472 -16.6133,0 -29.7747,-5.471 -39.4842,-16.413 -9.7097,-10.9946 -14.5644,-25.8819 -14.5644,-44.6622 0,-18.9906 4.9438,-33.9305 14.8316,-44.82 9.8878,-10.8892 23.4277,-16.3339 40.62,-16.334 6.6363,10e-5 12.9831,0.7366 19.0406,2.2094 6.1019,1.473 11.8475,3.6562 17.2368,6.5494 l -6.921,20.4608 c -3.0298,-1.6586 -6.4987,-3.2932 -9.7145,-4.4424 -5.4784,-1.8411 -10.979,-2.7617 -16.5018,-2.7618 -10.2442,10e-5 -18.15,3.3932 -23.7173,10.1792 -5.523,6.7336 -8.2844,16.3867 -8.2844,28.9594 0,12.4676 2.6723,22.0945 8.0172,28.8806 5.3446,6.7861 13.3768,10.1791 22.7818,10.1791 9.5548,0 15.4728,-2.4084 18.6291,-4.9461 l 0,-20.3835 -20.7001,0 0,-20.3584 40.0855,0"
           style="font-style:normal;font-variant:normal;font-weight:bold;font-stretch:normal;font-size:148.699646px;line-height:125%;font-family:'Bitstream Vera Sans';text-align:start;writing-mode:lr-tb;text-anchor:start;fill:#ffffff;fill-opacity:1;stroke:none;stroke-width:1pt;stroke-linecap:butt;stroke-linejoin:miter;stroke-opacity:1"
           id="path15061"
           inkscape:connector-curvature="0" />
        <path
           d="m 4023.2108,1216.5605 16.2279,0 51.2775,70.8022 0,-70.8022 21.8853,0 0,117.8103 -16.2279,0 -51.2774,-70.8022 0,70.8022 -21.8854,0 0,-117.8103"
           style="font-style:normal;font-variant:normal;font-weight:bold;font-stretch:normal;font-size:148.699646px;line-height:125%;font-family:'Bitstream Vera Sans';text-align:start;writing-mode:lr-tb;text-anchor:start;fill:#ffffff;fill-opacity:1;stroke:none;stroke-width:1pt;stroke-linecap:butt;stroke-linejoin:miter;stroke-opacity:1"
           id="path15063"
           inkscape:connector-curvature="0" />
        <path
           d="m 4246.3361,1216.5605 32.7366,0 22.7151,73.5479 22.8487,-73.5479 27.6698,0 12.5,117.8103 -24.3186,0 -7.5,-73.668 -22.9823,74.0213 -16.3015,0 -22.9824,-76.5213 -7.5,76.168 -24.3854,0 12.5,-117.8103"
           style="font-style:normal;font-variant:normal;font-weight:bold;font-stretch:normal;font-size:148.699646px;line-height:125%;font-family:'Bitstream Vera Sans';text-align:start;writing-mode:lr-tb;text-anchor:start;fill:#ffffff;fill-opacity:1;stroke:none;stroke-width:1pt;stroke-linecap:butt;stroke-linejoin:miter;stroke-opacity:1"
           id="path15065"
           inkscape:connector-curvature="0" />
        <path
           d="m 4382.3597,1216.5605 69.4147,0 0,22.9624 -43.6933,0 0,24.4365 33.5877,0 0,20.4623 -33.5877,0 0,26.9868 45.1631,0 0,22.9623 -70.8845,0 0,-117.8103"
           style="font-style:normal;font-variant:normal;font-weight:bold;font-stretch:normal;font-size:148.699646px;line-height:125%;font-family:'Bitstream Vera Sans';text-align:start;writing-mode:lr-tb;text-anchor:start;fill:#ffffff;fill-opacity:1;stroke:none;stroke-width:1pt;stroke-linecap:butt;stroke-linejoin:miter;stroke-opacity:1"
           id="path15067"
           inkscape:connector-curvature="0" />
      </g>
      <g
         aria-label="EXTENSIONS"
         transform="matrix(0.91901991,0,0,0.77325467,3546.302,1136.9622)"
         style="font-style:normal;font-variant:normal;font-weight:normal;font-stretch:normal;font-size:82.66666412px;line-height:25px;font-family:'Bitstream Vera Sans';-inkscape-font-specification:'Bitstream Vera Sans';text-align:center;letter-spacing:0px;word-spacing:0px;writing-mode:lr-tb;text-anchor:middle;fill:#ffffff;fill-opacity:1;stroke:none;stroke-width:0.91727346px;stroke-linecap:butt;stroke-linejoin:miter;stroke-opacity:1"
         id="flowRoot4500">
        <path
           id="path4526"
           style="font-style:normal;font-variant:normal;font-weight:bold;font-stretch:normal;font-family:'Bitstream Vera Sans';-inkscape-font-specification:'Bitstream Vera Sans Bold';stroke-width:0.91727346px"
           d="m 982.90235,283.00912 v 12.7552 q -4.96484,-2.22005 -9.6875,-3.35026 -4.72265,-1.1302 -8.92057,-1.1302 -5.57031,0 -8.23438,1.53385 -2.66406,1.53385 -2.66406,4.76302 0,2.42187 1.77604,3.79427 1.81641,1.33203 6.53907,2.30078 l 6.61979,1.33203 q 10.05078,2.01823 14.28906,6.13542 4.23828,4.11719 4.23828,11.70573 0,9.97005 -5.93359,14.85416 -5.89323,4.84375 -18.04297,4.84375 -5.73177,0 -11.50391,-1.08984 -5.77213,-1.08984 -11.54427,-3.22917 v -13.11849 q 5.77214,3.06771 11.14063,4.64193 5.40885,1.53386 10.41406,1.53386 5.08594,0 7.79036,-1.69532 2.70443,-1.69531 2.70443,-4.84375 0,-2.82552 -1.85677,-4.35937 -1.81641,-1.53386 -7.30599,-2.74479 l -6.01432,-1.33203 q -9.04167,-1.9375 -13.23959,-6.17579 -4.15755,-4.23828 -4.15755,-11.42317 0,-9.0013 5.8125,-13.84505 5.8125,-4.84375 16.71094,-4.84375 4.96484,0 10.21224,0.76692 5.24739,0.72657 10.85807,2.22006 z m -111.20442,-1.89714 h 17.35677 l 21.91796,41.33333 v -41.33333 h 14.73308 V 341.3763 H 908.34897 L 886.431,300.04297 v 41.33333 h -14.73307 z m -42.70573,10.17188 q -7.10417,0 -11.01954,5.24739 -3.91536,5.2474 -3.91536,14.77344 0,9.48567 3.91536,14.73307 3.91537,5.2474 11.01954,5.2474 7.14453,0 11.05989,-5.2474 3.91537,-5.2474 3.91537,-14.73307 0,-9.52604 -3.91537,-14.77344 -3.91536,-5.24739 -11.05989,-5.24739 z m 0,-11.26172 q 14.53125,0 22.76562,8.3151 8.23437,8.3151 8.23437,22.96745 0,14.61198 -8.23437,22.92708 -8.23437,8.3151 -22.76562,8.3151 -14.49089,0 -22.76563,-8.3151 -8.23437,-8.3151 -8.23437,-22.92708 0,-14.65235 8.23437,-22.96745 8.27474,-8.3151 22.76563,-8.3151 z m -58.36721,1.08984 h 15.54036 v 60.26432 h -15.54036 z m -17.63933,1.89714 v 12.7552 q -4.96484,-2.22005 -9.6875,-3.35026 -4.72265,-1.1302 -8.92057,-1.1302 -5.57031,0 -8.23437,1.53385 -2.66407,1.53385 -2.66407,4.76302 0,2.42187 1.77605,3.79427 1.8164,1.33203 6.53906,2.30078 l 6.61979,1.33203 q 10.05078,2.01823 14.28906,6.13542 4.23828,4.11719 4.23828,11.70573 0,9.97005 -5.93359,14.85416 -5.89323,4.84375 -18.04297,4.84375 -5.73177,0 -11.5039,-1.08984 -5.77214,-1.08984 -11.54427,-3.22917 v -13.11849 q 5.77213,3.06771 11.14062,4.64193 5.40885,1.53386 10.41406,1.53386 5.08594,0 7.79037,-1.69532 2.70442,-1.69531 2.70442,-4.84375 0,-2.82552 -1.85677,-4.35937 -1.8164,-1.53386 -7.30599,-2.74479 l -6.01432,-1.33203 q -9.04167,-1.9375 -13.23958,-6.17579 -4.15755,-4.23828 -4.15755,-11.42317 0,-9.0013 5.8125,-13.84505 5.8125,-4.84375 16.71093,-4.84375 4.96485,0 10.21224,0.76692 5.2474,0.72657 10.85807,2.22006 z m -111.20441,-1.89714 h 17.35677 l 21.91797,41.33333 v -41.33333 h 14.73307 v 60.26432 h -17.35677 l -21.91796,-41.33333 v 41.33333 h -14.73308 z m -56.51042,0 h 41.9388 v 11.74609 H 600.8112 v 11.22136 h 24.82421 v 11.74609 H 600.8112 v 13.80469 h 27.28645 v 11.74609 h -42.82682 z m -63.53385,0 h 55.54167 v 11.74609 h -19.98047 v 48.51823 h -15.54036 v -48.51823 h -20.02084 z m -23.00781,29.50651 20.90886,30.75781 h -16.1862 l -14.08724,-20.58594 -13.96615,20.58594 h -16.26692 l 20.90885,-30.75781 -20.10156,-29.50651 h 16.22656 l 13.19922,19.41536 13.15885,-19.41536 h 16.30729 z m -90.09374,-29.50651 h 41.9388 v 11.74609 h -26.39844 v 11.22136 h 24.82422 v 11.74609 h -24.82422 v 13.80469 h 27.28646 v 11.74609 h -42.82682 z"
           inkscape:connector-curvature="0" />
      </g>
    </g>
  </g>
</svg>
